HIERARCHY
ROOT Root
{
	OFFSET 0.00000 0.00000 0.00000
	CHANNELS 6 Xposition Yposition Zposition Zrotation Xrotation Yrotation
	JOINT Hips
	{
		OFFSET 0 0 0	
		CHANNELS 3 Zrotation Xrotation Yrotation
		JOINT Spine
		{
			OFFSET 0 4 0	
			CHANNELS 3 Zrotation Xrotation Yrotation
			JOINT Spine1
			{
				OFFSET 0 19.4 0	
				CHANNELS 3 Zrotation Xrotation Yrotation
				JOINT Spine2
				{
					OFFSET 0 16.6 0	
					CHANNELS 3 Zrotation Xrotation Yrotation
					JOINT LeftCollar
					{
						OFFSET 0 10 0	
						CHANNELS 3 Zrotation Xrotation Yrotation
						JOINT LeftArm
						{
							OFFSET 15.6 -2 3	
							CHANNELS 3 Zrotation Xrotation Yrotation
							JOINT LeftForeArm
							{
								OFFSET 3.5 -27 -1	
								CHANNELS 3 Zrotation Xrotation Yrotation
								JOINT LeftHand
								{
									OFFSET 1 -27 1	
									CHANNELS 3 Zrotation Xrotation Yrotation
									End Site
									{
										OFFSET 0 -15 0
									}
								}
							}
						}
					}
					JOINT RightCollar
					{
						OFFSET 0 10 0	
						CHANNELS 3 Zrotation Xrotation Yrotation
						JOINT RightArm
						{
							OFFSET -15.6 -2 3	
							CHANNELS 3 Zrotation Xrotation Yrotation
							JOINT RightForeArm
							{
								OFFSET -3.5 -27 -1	
								CHANNELS 3 Zrotation Xrotation Yrotation
								JOINT RightHand
								{
									OFFSET -1 -27 1	
									CHANNELS 3 Zrotation Xrotation Yrotation
									End Site
									{
										OFFSET 0 -15 0
									}
								}
							}
						}
					}
					JOINT Neck
					{
						OFFSET 0 10 0	
						CHANNELS 3 Zrotation Xrotation Yrotation
						JOINT Head
						{
							OFFSET 0 12.7 3	
							CHANNELS 3 Zrotation Xrotation Yrotation
							End Site
							{
								OFFSET 0 12.7 3
							}
						}
					}
				}
			}
		}
	}
	JOINT LeftHip
	{
		OFFSET 0 0 0	
		CHANNELS 3 Zrotation Xrotation Yrotation
		JOINT LeftUpLeg
		{
			OFFSET 8.8 -6 0	
			CHANNELS 3 Zrotation Xrotation Yrotation
			JOINT LeftLeg
			{
				OFFSET 0 -39 2	
				CHANNELS 3 Zrotation Xrotation Yrotation
				JOINT LeftFoot
				{
					OFFSET 0 -43 -2	
					CHANNELS 3 Zrotation Xrotation Yrotation
					JOINT LeftFootFront
					{
						OFFSET 0 -7 8.5	
						CHANNELS 3 Zrotation Xrotation Yrotation
						End Site
						{
							OFFSET 0 -0.5 9
						}
					}
				}
				JOINT LeftHeel
				{
					OFFSET 0 -43 -2	
					CHANNELS 3 Zrotation Xrotation Yrotation
					End Site
					{
						OFFSET 0 -7.5 -5
					}
				}
			}
		}
	}
	JOINT RightHip
	{
		OFFSET 0 0 0	
		CHANNELS 3 Zrotation Xrotation Yrotation
		JOINT RightUpLeg
		{
			OFFSET -8.8 -6 0	
			CHANNELS 3 Zrotation Xrotation Yrotation
			JOINT RightLeg
			{
				OFFSET 0 -39 2	
				CHANNELS 3 Zrotation Xrotation Yrotation
				JOINT RightFoot
				{
					OFFSET 0 -43 -2	
					CHANNELS 3 Zrotation Xrotation Yrotation
					JOINT RightFootFront
					{
						OFFSET 0 -7 8.5	
						CHANNELS 3 Zrotation Xrotation Yrotation
						End Site
						{
							OFFSET 0 -0.5 9
						}
					}
				}
				JOINT RightHeel
				{
					OFFSET 0 -43 -2	
					CHANNELS 3 Zrotation Xrotation Yrotation
					End Site
					{
						OFFSET 0 -7.5 -5
					}
				}
			}
		}
	}
}
MOTION
Frames: 27
Frame Time: 0.05
0 95.5 0 -0 0 -0 -0 0 -0 -0 0 -0 0.75969 13.577 0.88391 -0 0 -0 -0 0 -0 13.723 -13.753 -7.2169 -41.432 -47.472 -62.466 -0 0 -0 -0 0 -0 -15.432 -36.896 14.375 -89.621 25.415 -45.3 -0 0 -0 -3.281 -17.503 1.1216 -3.281 -17.503 1.1216 -0 0 -0 -0 0 -0 -0 0 -0 -0 0 -0 -0 0 -0 -0 0 -0 -0 0 -0 -0 0 -0 -0 0 -0 -0 0 -0 -0 0 -0 -0 0 -0 
0 95.5 0 -0 0 -0 -0 0 -0 -0 0 -0 0.77856 13.522 0.8856 -0 0 -0 -0 0 -0 13.717 -13.738 -7.2148 -41.446 -47.476 -62.488 -0 0 -0 -0 0 -0 -15.456 -36.835 14.375 -89.64 25.424 -45.253 -0 0 -0 -3.3117 -17.495 1.185 -3.3117 -17.495 1.185 -0 0 -0 -0 0 -0 -0 0 -0 -0 0 -0 -0 0 -0 -0 0 -0 -0 0 -0 -0 0 -0 -0 0 -0 -0 0 -0 -0 0 -0 -0 0 -0 
0 95.5 0 -0 0 -0 -0 0 -0 -0 0 -0 0.82951 13.488 0.90762 -0 0 -0 -0 0 -0 13.681 -13.745 -7.2491 -41.458 -47.493 -62.498 -0 0 -0 -0 0 -0 -15.532 -36.777 14.341 -89.631 25.427 -45.286 -0 0 -0 -3.3531 -17.487 1.2316 -3.3531 -17.487 1.2316 -0 0 -0 -0 0 -0 -0 0 -0 -0 0 -0 -0 0 -0 -0 0 -0 -0 0 -0 -0 0 -0 -0 0 -0 -0 0 -0 -0 0 -0 -0 0 -0 
0 95.5 0 -0 0 -0 -0 0 -0 -0 0 -0 0.81432 13.565 0.88753 -0 0 -0 -0 0 -0 13.702 -13.787 -7.2065 -41.495 -47.513 -62.518 -0 0 -0 -0 0 -0 -15.486 -36.845 14.372 -89.633 25.447 -45.32 -0 0 -0 -3.3229 -17.509 1.2655 -3.3229 -17.508 1.2655 -0 0 -0 -0 0 -0 -0 0 -0 -0 0 -0 -0 0 -0 -0 0 -0 -0 0 -0 -0 0 -0 -0 0 -0 -0 0 -0 -0 0 -0 -0 0 -0 
0 95.5 0 -0 0 -0 -0 0 -0 -0 0 -0 0.80934 13.591 0.88578 -0 0 -0 -0 0 -0 13.735 -13.789 -7.1647 -41.547 -47.512 -62.54 -0 0 -0 -0 0 -0 -15.438 -36.873 14.402 -89.693 25.461 -45.302 -0 0 -0 -3.2914 -17.491 1.2528 -3.2914 -17.491 1.2528 -0 0 -0 -0 0 -0 -0 0 -0 -0 0 -0 -0 0 -0 -0 0 -0 -0 0 -0 -0 0 -0 -0 0 -0 -0 0 -0 -0 0 -0 -0 0 -0 
0 95.5 0 -0 0 -0 -0 0 -0 -0 0 -0 0.84436 13.577 0.8971 -0 0 -0 -0 0 -0 13.699 -13.795 -7.1815 -41.515 -47.511 -62.515 -0 0 -0 -0 0 -0 -15.481 -36.861 14.374 -89.707 25.456 -45.278 -0 0 -0 -3.2834 -17.472 1.2436 -3.2834 -17.472 1.2436 -0 0 -0 -0 0 -0 -0 0 -0 -0 0 -0 -0 0 -0 -0 0 -0 -0 0 -0 -0 0 -0 -0 0 -0 -0 0 -0 -0 0 -0 -0 0 -0 
0 95.5 0 -0 0 -0 -0 0 -0 -0 0 -0 0.87016 13.616 0.90414 -0 0 -0 -0 0 -0 13.652 -13.845 -7.2166 -41.46 -47.527 -62.465 -0 0 -0 -0 0 -0 -15.527 -36.902 14.343 -89.711 25.463 -45.26 -0 0 -0 -3.2799 -17.492 1.2515 -3.2799 -17.492 1.2515 -0 0 -0 -0 0 -0 -0 0 -0 -0 0 -0 -0 0 -0 -0 0 -0 -0 0 -0 -0 0 -0 -0 0 -0 -0 0 -0 -0 0 -0 -0 0 -0 
0 95.5 0 -0 0 -0 -0 0 -0 -0 0 -0 0.84407 13.596 0.91065 -0 0 -0 -0 0 -0 13.671 -13.849 -7.2269 -41.472 -47.512 -62.465 -0 0 -0 -0 0 -0 -15.495 -36.896 14.351 -89.716 25.475 -45.224 -0 0 -0 -3.2512 -17.493 1.2563 -3.2512 -17.493 1.2563 -0 0 -0 -0 0 -0 -0 0 -0 -0 0 -0 -0 0 -0 -0 0 -0 -0 0 -0 -0 0 -0 -0 0 -0 -0 0 -0 -0 0 -0 -0 0 -0 
0 95.5 0 -0 0 -0 -0 0 -0 -0 0 -0 0.85092 13.579 0.89484 -0 0 -0 -0 0 -0 13.682 -13.838 -7.1833 -41.519 -47.489 -62.507 -0 0 -0 -0 0 -0 -15.465 -36.878 14.387 -89.742 25.488 -45.208 -0 0 -0 -3.2531 -17.498 1.2828 -3.2531 -17.498 1.2828 -0 0 -0 -0 0 -0 -0 0 -0 -0 0 -0 -0 0 -0 -0 0 -0 -0 0 -0 -0 0 -0 -0 0 -0 -0 0 -0 -0 0 -0 -0 0 -0 
0 95.5 0 -0 0 -0 -0 0 -0 -0 0 -0 0.8839 13.615 0.89233 -0 0 -0 -0 0 -0 13.657 -13.863 -7.1781 -41.508 -47.513 -62.496 -0 0 -0 -0 0 -0 -15.481 -36.887 14.389 -89.773 25.498 -45.222 -0 0 -0 -3.2755 -17.512 1.3096 -3.2755 -17.512 1.3096 -0 0 -0 -0 0 -0 -0 0 -0 -0 0 -0 -0 0 -0 -0 0 -0 -0 0 -0 -0 0 -0 -0 0 -0 -0 0 -0 -0 0 -0 -0 0 -0 
0 95.5 0 -0 0 -0 -0 0 -0 -0 0 -0 0.87923 13.627 0.89515 -0 0 -0 -0 0 -0 13.67 -13.861 -7.1831 -41.502 -47.526 -62.483 -0 0 -0 -0 0 -0 -15.461 -36.888 14.388 -89.789 25.499 -45.234 -0 0 -0 -3.268 -17.503 1.3075 -3.268 -17.503 1.3075 -0 0 -0 -0 0 -0 -0 0 -0 -0 0 -0 -0 0 -0 -0 0 -0 -0 0 -0 -0 0 -0 -0 0 -0 -0 0 -0 -0 0 -0 -0 0 -0 
0 95.5 0 -0 0 -0 -0 0 -0 -0 0 -0 0.87613 13.614 0.85887 -0 0 -0 -0 0 -0 13.668 -13.822 -7.1455 -41.509 -47.523 -62.492 -0 0 -0 -0 0 -0 -15.42 -36.883 14.432 -89.8 25.502 -45.23 -0 0 -0 -3.2413 -17.486 1.2936 -3.2413 -17.486 1.2936 -0 0 -0 -0 0 -0 -0 0 -0 -0 0 -0 -0 0 -0 -0 0 -0 -0 0 -0 -0 0 -0 -0 0 -0 -0 0 -0 -0 0 -0 -0 0 -0 
0 95.5 0 -0 0 -0 -0 0 -0 -0 0 -0 0.87343 13.614 0.85576 -0 0 -0 -0 0 -0 13.653 -13.794 -7.148 -41.512 -47.533 -62.517 -0 0 -0 -0 0 -0 -15.411 -36.88 14.423 -89.816 25.497 -45.199 -0 0 -0 -3.2168 -17.471 1.2728 -3.2168 -17.471 1.2728 -0 0 -0 -0 0 -0 -0 0 -0 -0 0 -0 -0 0 -0 -0 0 -0 -0 0 -0 -0 0 -0 -0 0 -0 -0 0 -0 -0 0 -0 -0 0 -0 
0 95.5 0 -0 0 -0 -0 0 -0 -0 0 -0 0.87991 13.646 0.85741 -0 0 -0 -0 0 -0 13.641 -13.813 -7.1332 -41.528 -47.534 -62.55 -0 0 -0 -0 0 -0 -15.415 -36.898 14.403 -89.828 25.496 -45.199 -0 0 -0 -3.2012 -17.473 1.2722 -3.2012 -17.473 1.2722 -0 0 -0 -0 0 -0 -0 0 -0 -0 0 -0 -0 0 -0 -0 0 -0 -0 0 -0 -0 0 -0 -0 0 -0 -0 0 -0 -0 0 -0 -0 0 -0 
0 95.5 0 -0 0 -0 -0 0 -0 -0 0 -0 0.87374 13.671 0.86591 -0 0 -0 -0 0 -0 13.645 -13.819 -7.1295 -41.539 -47.535 -62.546 -0 0 -0 -0 0 -0 -15.392 -36.903 14.378 -89.854 25.485 -45.201 -0 0 -0 -3.1838 -17.47 1.2741 -3.1838 -17.47 1.2741 -0 0 -0 -0 0 -0 -0 0 -0 -0 0 -0 -0 0 -0 -0 0 -0 -0 0 -0 -0 0 -0 -0 0 -0 -0 0 -0 -0 0 -0 -0 0 -0 
0 95.5 0 -0 0 -0 -0 0 -0 -0 0 -0 0.86414 13.667 0.89792 -0 0 -0 -0 0 -0 13.657 -13.814 -7.142 -41.554 -47.515 -62.534 -0 0 -0 -0 0 -0 -15.389 -36.871 14.336 -89.86 25.476 -45.232 -0 0 -0 -3.1788 -17.462 1.2651 -3.1788 -17.462 1.2651 -0 0 -0 -0 0 -0 -0 0 -0 -0 0 -0 -0 0 -0 -0 0 -0 -0 0 -0 -0 0 -0 -0 0 -0 -0 0 -0 -0 0 -0 -0 0 -0 
0 95.5 0 -0 0 -0 -0 0 -0 -0 0 -0 0.86494 13.649 0.91917 -0 0 -0 -0 0 -0 13.656 -13.804 -7.1513 -41.565 -47.497 -62.531 -0 0 -0 -0 0 -0 -15.39 -36.82 14.306 -89.865 25.47 -45.258 -0 0 -0 -3.1806 -17.453 1.2774 -3.1806 -17.453 1.2774 -0 0 -0 -0 0 -0 -0 0 -0 -0 0 -0 -0 0 -0 -0 0 -0 -0 0 -0 -0 0 -0 -0 0 -0 -0 0 -0 -0 0 -0 -0 0 -0 
0 95.5 0 -0 0 -0 -0 0 -0 -0 0 -0 0.86008 13.665 0.93925 -0 0 -0 -0 0 -0 13.649 -13.813 -7.1593 -41.579 -47.497 -62.54 -0 0 -0 -0 0 -0 -15.384 -36.817 14.264 -89.878 25.451 -45.264 -0 0 -0 -3.1812 -17.463 1.2947 -3.1812 -17.463 1.2947 -0 0 -0 -0 0 -0 -0 0 -0 -0 0 -0 -0 0 -0 -0 0 -0 -0 0 -0 -0 0 -0 -0 0 -0 -0 0 -0 -0 0 -0 -0 0 -0 
0 95.5 0 -0 0 -0 -0 0 -0 -0 0 -0 0.8639 13.702 0.93143 -0 0 -0 -0 0 -0 13.631 -13.828 -7.1373 -41.588 -47.495 -62.553 -0 0 -0 -0 0 -0 -15.367 -36.821 14.272 -89.895 25.451 -45.268 -0 0 -0 -3.1879 -17.466 1.312 -3.1879 -17.466 1.312 -0 0 -0 -0 0 -0 -0 0 -0 -0 0 -0 -0 0 -0 -0 0 -0 -0 0 -0 -0 0 -0 -0 0 -0 -0 0 -0 -0 0 -0 -0 0 -0 
0 95.5 0 -0 0 -0 -0 0 -0 -0 0 -0 0.89137 13.732 0.95042 -0 0 -0 -0 0 -0 13.596 -13.877 -7.1468 -41.582 -47.49 -62.556 -0 0 -0 -0 0 -0 -15.432 -36.832 14.225 -89.901 25.455 -45.256 -0 0 -0 -3.2127 -17.449 1.2996 -3.2127 -17.449 1.2996 -0 0 -0 -0 0 -0 -0 0 -0 -0 0 -0 -0 0 -0 -0 0 -0 -0 0 -0 -0 0 -0 -0 0 -0 -0 0 -0 -0 0 -0 -0 0 -0 
0 95.5 0 -0 0 -0 -0 0 -0 -0 0 -0 0.88008 13.739 1.0077 -0 0 -0 -0 0 -0 13.565 -13.89 -7.1984 -41.574 -47.491 -62.567 -0 0 -0 -0 0 -0 -15.477 -36.809 14.125 -89.874 25.443 -45.278 -0 0 -0 -3.2326 -17.429 1.2822 -3.2326 -17.429 1.2822 -0 0 -0 -0 0 -0 -0 0 -0 -0 0 -0 -0 0 -0 -0 0 -0 -0 0 -0 -0 0 -0 -0 0 -0 -0 0 -0 -0 0 -0 -0 0 -0 
0 95.5 0 -0 0 -0 -0 0 -0 -0 0 -0 0.87716 13.769 1.0176 -0 0 -0 -0 0 -0 13.548 -13.898 -7.2333 -41.551 -47.515 -62.54 -0 0 -0 -0 0 -0 -15.486 -36.817 14.083 -89.875 25.432 -45.269 -0 0 -0 -3.2631 -17.428 1.2849 -3.2631 -17.428 1.2849 -0 0 -0 -0 0 -0 -0 0 -0 -0 0 -0 -0 0 -0 -0 0 -0 -0 0 -0 -0 0 -0 -0 0 -0 -0 0 -0 -0 0 -0 -0 0 -0 
0 95.5 0 -0 0 -0 -0 0 -0 -0 0 -0 0.94757 13.779 0.9556 -0 0 -0 -0 0 -0 13.437 -13.828 -7.1999 -41.53 -47.54 -62.556 -0 0 -0 -0 0 -0 -15.539 -36.867 14.106 -89.911 25.419 -45.162 -0 0 -0 -3.2999 -17.442 1.2775 -3.2999 -17.442 1.2775 -0 0 -0 -0 0 -0 -0 0 -0 -0 0 -0 -0 0 -0 -0 0 -0 -0 0 -0 -0 0 -0 -0 0 -0 -0 0 -0 -0 0 -0 -0 0 -0 
0 95.5 0 -0 0 -0 -0 0 -0 -0 0 -0 1.0011 13.778 0.82666 -0 0 -0 -0 0 -0 13.359 -13.719 -7.1068 -41.524 -47.541 -62.541 -0 0 -0 -0 0 -0 -15.49 -37.004 14.178 -89.982 25.365 -44.991 -0 0 -0 -3.2793 -17.485 1.263 -3.2793 -17.485 1.263 -0 0 -0 -0 0 -0 -0 0 -0 -0 0 -0 -0 0 -0 -0 0 -0 -0 0 -0 -0 0 -0 -0 0 -0 -0 0 -0 -0 0 -0 -0 0 -0 
0 95.5 0 -0 0 -0 -0 0 -0 -0 0 -0 0.99933 13.818 0.72273 -0 0 -0 -0 0 -0 13.357 -13.766 -6.9424 -41.56 -47.445 -62.579 -0 0 -0 -0 0 -0 -15.433 -37.152 14.212 -89.967 25.307 -44.923 -0 0 -0 -3.2098 -17.558 1.2574 -3.2098 -17.558 1.2574 -0 0 -0 -0 0 -0 -0 0 -0 -0 0 -0 -0 0 -0 -0 0 -0 -0 0 -0 -0 0 -0 -0 0 -0 -0 0 -0 -0 0 -0 -0 0 -0 
0 95.5 0 -0 0 -0 -0 0 -0 -0 0 -0 0.98675 13.841 0.67844 -0 0 -0 -0 0 -0 13.387 -14.154 -6.5506 -41.675 -46.961 -62.669 -0 0 -0 -0 0 -0 -15.413 -37.229 14.21 -89.952 25.264 -44.87 -0 0 -0 -3.1253 -17.599 1.2764 -3.1253 -17.599 1.2764 -0 0 -0 -0 0 -0 -0 0 -0 -0 0 -0 -0 0 -0 -0 0 -0 -0 0 -0 -0 0 -0 -0 0 -0 -0 0 -0 -0 0 -0 -0 0 -0 
0 95.5 0 -0 0 -0 -0 0 -0 -0 0 -0 0.97935 13.718 0.68632 -0 0 -0 -0 0 -0 13.193 -14.535 -5.8536 -41.984 -46.2 -63.37 -0 0 -0 -0 0 -0 -15.379 -37.124 14.23 -89.961 25.265 -44.841 -0 0 -0 -3.0598 -17.545 1.2936 -3.0598 -17.545 1.2936 -0 0 -0 -0 0 -0 -0 0 -0 -0 0 -0 -0 0 -0 -0 0 -0 -0 0 -0 -0 0 -0 -0 0 -0 -0 0 -0 -0 0 -0 -0 0 -0 
